<mxfile host="app.diagrams.net" modified="2024-05-16T08:17:27.180Z" agent="Mozilla/5.0 (Macintosh; Intel Mac OS X 10_15_7) AppleWebKit/537.36 (KHTML, like Gecko) Chrome/124.0.0.0 Safari/537.36" version="24.0.7" etag="gNIibkr01OfgCHn0YVEj" type="github">
  <diagram name="第 1 页" id="nx1unRFZVy5Btq1K-cxF">
    <mxGraphModel>
      <root>
        <mxCell id="0" />
        <mxCell id="1" parent="0" />
      </root>
    </mxGraphModel>
  </diagram>
</mxfile>
